<svg xmlns="http://www.w3.org/2000/svg" xml:space="preserve" style="width:100%;height:100%;background-size:initial;background-repeat-y:initial;background-repeat-x:initial;background-position-y:initial;background-position-x:initial;background-origin:initial;background-image:initial;background-clip:initial;background-attachment:initial;animation-play-state:paused" viewBox="0 0 100 100">
  <g class="ldl-scale">
    <path fill="#666766" d="M6.638 100c1.726 0 3.452-.664 4.646-1.991L34.783 74.51c2.655-2.655 2.655-6.77 0-9.425-2.656-2.656-6.771-2.656-9.426 0L1.99 88.715c-2.655 2.656-2.655 6.771 0 9.426C3.32 99.336 4.912 100 6.638 100z"/>
      <path fill="#666766" d="M28.676 71.324c-16.33-16.329-16.33-42.88 0-59.077 16.329-16.33 42.88-16.33 59.077 0 16.33 16.33 16.33 42.88 0 59.077-8.098 8.099-18.852 12.214-29.605 12.214s-21.241-4.115-29.472-12.214zm7.567-51.643c-5.841 5.842-9.16 13.674-9.16 22.038s3.186 16.197 9.16 22.038c12.214 12.214 31.995 12.214 44.076 0 12.213-12.214 12.213-31.995 0-44.076-6.107-6.106-14.073-9.16-22.038-9.16-7.966 0-15.931 3.054-22.038 9.16z"/>
  </g>
</svg>
